<?xml version="1.0" standalone="no"?><!DOCTYPE svg PUBLIC "-//W3C//DTD SVG 1.1//EN" "http://www.w3.org/Graphics/SVG/1.1/DTD/svg11.dtd"><svg t="1511689777209" class="icon" style="" viewBox="0 0 1024 1024" version="1.1" xmlns="http://www.w3.org/2000/svg" p-id="1845" xmlns:xlink="http://www.w3.org/1999/xlink" width="200" height="200"><defs><style type="text/css"></style></defs><path d="M957.1 633.8c1.2 7.7 0.9 17-1 27.9-1.9 10.9-5.1 22-9.6 33.2s-9.9 21.3-16.3 30.3-13.4 15.4-21.1 19.3c-7.7 3.9-14.4 5.8-20.1 5.8-5.8 0-12.2-1.2-19.2-3.8-6.4-1.9-14.4-3.6-24-5.3-9.6-1.6-19.4-2-29.3-1-9.9 0.9-19.8 3-29.7 6.2-9.9 3.2-18.4 8.7-25.5 16.4-15.3 16.1-24.3 34.3-26.8 54.8s0.3 40.1 8.6 58.7c6.4 12.8 5.5 25.7-2.8 38.5-3.9 5.1-10 10.5-18.3 15.8-8.3 5.5-17.5 10.5-27.3 15-9.9 4.5-20.3 8.1-31.2 10.6-10.9 2.6-20.5 3.8-28.8 3.8-5.8 0-11.2-2.2-16.3-6.7-5.1-4.5-8.5-9.3-10.5-14.5h-0.9c-7-19.9-19.1-37-36-51.5-17-14.5-36.6-21.7-59-21.7-21.8 0-41.4 7.2-59 21.7s-29.9 31.3-37 50.5c-3.2 7.7-8 13.3-14.4 16.9-6.4 3.5-13.4 5.3-21.1 5.3-8.9 0-19-1.6-30.2-4.8-11.2-3.3-22.4-7.2-33.6-12-11.2-4.8-21.3-10.4-30.3-16.9-8.9-6.4-15.6-12.8-20.1-19.3-3.2-4.5-5-9.7-5.3-15.8-0.3-6 2.1-14.6 7.2-25.5 7-14.8 9.8-31.6 8.2-50.5-1.6-18.9-9.8-36.4-24.5-52.5-9-9.6-19.8-15.8-32.6-18.8-12.8-2.9-25-4-36.5-3.4-13.4 0.6-27.2 3.2-41.2 7.7-9 2.5-17.9 1.8-26.9-2-7-2.6-13.6-8.5-19.7-17.8s-11.5-19.6-16.3-30.8c-4.8-11.2-8.5-22.8-11.1-34.7-2.6-11.9-3.2-21.6-1.9-29.3 2-14.1 8.4-23.1 19.3-27 19.2-7.7 36.5-20.3 51.8-38 15.4-17.6 23.1-37.4 23.1-59.2 0-22.5-7.7-42-23.1-58.7-15.4-16.6-32.6-28.8-51.8-36.5-5.8-1.9-10.6-6.6-14.4-14-3.8-7.4-5.8-15-5.8-22.6 0-8.3 1.3-17.6 3.9-27.9 2.6-10.3 5.9-20.2 10.1-29.9 4.1-9.6 8.9-18.4 14.4-26.5 5.4-8 11.3-13.9 17.8-17.8 5.1-3.2 10.1-4.5 14.9-3.8 4.7 0.6 10.1 1.9 15.9 3.8 19.2 7.7 39.2 10.1 60 7.2 20.8-2.9 39.2-12 55.2-27.4 7.7-7.7 13.3-17.1 16.8-28.4 3.5-11.2 5.8-22.3 6.7-33.2 0.9-10.9 0.9-20.8 0-29.8-1-9-1.7-15.4-2.4-19.3-1.3-3.9-2.4-8.3-3.4-13.5-0.9-5.1-0.4-9.6 1.5-13.4 3.8-9 10.7-16.8 20.6-23.6 9.9-6.7 20.6-12.3 32.2-16.8 11.6-4.5 22.7-7.9 33.6-10.1 10.8-2.2 19.5-3.4 25.9-3.4 8.3 0 14.9 2.7 19.7 8.2 4.8 5.5 8.2 11.1 10.1 16.9 7 17.3 18.6 32.6 34.6 45.7 16 13.1 34.9 19.7 56.6 19.7 22.4 0 42.2-6.3 59.5-18.8 17.3-12.5 29.4-28.4 36.4-47.7 2.6-5.1 6.6-10.4 12.1-15.9 5.4-5.4 11-8.2 16.7-8.2 8.9 0 18.8 1.3 29.3 3.8 10.5 2.6 20.9 6.1 31.2 10.6 10.2 4.5 19.7 10.2 28.3 17.3 8.6 7.1 15.5 14.8 20.6 23.1 3.2 5.1 4.2 10.7 2.9 16.8-1.2 6.1-2.6 10.5-3.9 13-8.3 18.6-10.8 38.2-7.6 58.7 3.2 20.6 12.5 38.5 27.8 53.9 15.4 15.4 34.2 23.9 56.6 25.5 22.4 1.6 43.2-2.1 62.4-11.1 5.1-3.2 11.3-4.5 18.7-3.8 7.4 0.6 13.6 3.5 18.7 8.6 9.6 9 18 22.6 25.4 40.9 7.4 18.3 12.3 36.7 14.9 55.3 1.2 10.9-0.5 19.4-5.3 25.5-4.8 6.1-9.8 10.1-14.9 12-19.8 7.1-36.8 19.4-50.9 37-14.4 18.2-21.5 38.2-21.5 60.7 0 21.9 5.9 40.9 17.7 57.3 11.8 16.4 27.4 28.1 46.6 35.1 4.5 2.6 8.3 5.2 11.5 7.7 7.1 5.8 11.9 13.2 14.4 22.2z m-446.2 86.6c28.8 0 56-5.5 81.6-16.4 25.6-10.9 47.8-26 66.7-45.3 18.9-19.3 33.7-41.5 44.6-66.8 10.8-25.4 16.3-52.5 16.3-81.4 0-28.9-5.5-56-16.3-81.3-10.9-25.4-25.8-47.5-44.6-66.4-18.9-18.9-41.1-33.8-66.7-44.7-25.6-10.9-52.8-16.4-81.6-16.4-28.8 0-55.9 5.4-81.1 16.4-25.3 10.9-47.4 25.8-66.2 44.8-18.9 18.9-33.8 41.1-44.7 66.4-10.8 25.3-16.3 52.4-16.3 81.3s5.5 56 16.3 81.4c10.9 25.3 25.8 47.6 44.6 66.8 18.9 19.3 40.9 34.3 66.2 45.3 25.3 10.8 52.3 16.3 81.2 16.3z" p-id="1846"></path></svg>